<?xml version="1.0" encoding="UTF-8"?>
<svg version="1.1" xmlns="http://www.w3.org/2000/svg" width="32" height="32">
<path d="M0 0 C10.56 0 21.12 0 32 0 C32 7.92 32 15.84 32 24 C31.34 24 30.68 24 30 24 C29.7525 24.61875 29.505 25.2375 29.25 25.875 C27.79371361 28.35068687 26.62187494 28.95125002 24 30 C24 30.66 24 31.32 24 32 C17.4 32 10.8 32 4 32 C3.67 30.68 3.34 29.36 3 28 C2.67 27.34 2.34 26.68 2 26 C1.34 26 0.68 26 0 26 C0 17.42 0 8.84 0 0 Z M28 2 C27.67 2.66 27.34 3.32 27 4 C27.66 4 28.32 4 29 4 C28.67 3.34 28.34 2.68 28 2 Z M29 4 C30 6 30 6 30 6 Z M1 6 C2 8 2 8 2 8 Z " fill="#0C0D41" transform="translate(0,0)"/>
<path d="M0 0 C-0.33 1.98 -0.66 3.96 -1 6 C0.65 5.67 2.3 5.34 4 5 C4.66 6.32 5.32 7.64 6 9 C4.35 8.67 2.7 8.34 1 8 C1 8.66 1 9.32 1 10 C2.98 10.99 4.96 11.98 7 13 C6.67 14.65 6.34 16.3 6 18 C5.36191406 18.12117188 4.72382813 18.24234375 4.06640625 18.3671875 C3.24011719 18.53476562 2.41382813 18.70234375 1.5625 18.875 C0.32693359 19.11863281 0.32693359 19.11863281 -0.93359375 19.3671875 C-1.61550781 19.57601563 -2.29742188 19.78484375 -3 20 C-3.33 20.66 -3.66 21.32 -4 22 C-6.52751348 20.26233448 -7.82314479 18.82049222 -8.4765625 15.7890625 C-8.83730438 9.61847771 -7.39004566 6.14338914 -3.5078125 1.3984375 C-2 0 -2 0 0 0 Z " fill="#101246" transform="translate(8,4)"/>
<path d="M0 0 C1.890625 0.2578125 1.890625 0.2578125 4 1 C5.046875 2.7421875 5.046875 2.7421875 5.75 4.875 C6.11351562 5.92300781 6.11351562 5.92300781 6.484375 6.9921875 C7 9 7 9 7 12 C6.34 12 5.68 12 5 12 C4.67 11.34 4.34 10.68 4 10 C1.47266765 9.34444881 1.47266765 9.34444881 -1 9 C-1.33 10.32 -1.66 11.64 -2 13 C-2.66 13 -3.32 13 -4 13 C-3.52140759 11.39566191 -3.04210442 9.79153584 -2.5625 8.1875 C-2.29566406 7.29417969 -2.02882813 6.40085937 -1.75390625 5.48046875 C-1.19612127 3.64526945 -0.60655425 1.81966274 0 0 Z " fill="#ACB3C3" transform="translate(19,10)"/>
<path d="M0 0 C1.67542976 0.28604898 3.34385343 0.61781233 5 1 C5 1.99 5 2.98 5 4 C3.68 3.67 2.36 3.34 1 3 C1 3.66 1 4.32 1 5 C2.98 5.99 4.96 6.98 7 8 C6.67 9.65 6.34 11.3 6 13 C3.1875 13.6875 3.1875 13.6875 0 14 C-1.875 12.6875 -1.875 12.6875 -3 11 C-3 10.34 -3 9.68 -3 9 C-2.401875 9.309375 -1.80375 9.61875 -1.1875 9.9375 C1.08956772 11.10209704 1.08956772 11.10209704 4 12 C2.75453595 8.26360784 1.36595047 7.81243487 -2 6 C-1.125 1.125 -1.125 1.125 0 0 Z " fill="#DBE1ED" transform="translate(8,9)"/>
<path d="M0 0 C1.32 0.66 2.64 1.32 4 2 C3.67 2.99 3.34 3.98 3 5 C3.99 5 4.98 5 6 5 C5.34 7.31 4.68 9.62 4 12 C3.79375 11.401875 3.5875 10.80375 3.375 10.1875 C1.49073918 7.18981233 -0.81132084 6.38638224 -4 5 C-3.67 4.01 -3.34 3.02 -3 2 C-1.02 2.495 -1.02 2.495 1 3 C0.67 2.01 0.34 1.02 0 0 Z " fill="#2A2E54" transform="translate(12,9)"/>
<path d="M0 0 C2.97 0 5.94 0 9 0 C9 1.65 9 3.3 9 5 C8.01 5.495 8.01 5.495 7 6 C6.34 5.01 5.68 4.02 5 3 C3.68 3 2.36 3 1 3 C0.67 2.01 0.34 1.02 0 0 Z " fill="#01000F" transform="translate(23,0)"/>
<path d="M0 0 C2.64 0 5.28 0 8 0 C5.33333333 2.66666667 2.66666667 5.33333333 0 8 C0 5.36 0 2.72 0 0 Z " fill="#020006" transform="translate(0,0)"/>
<path d="M0 0 C3 1 3 1 3.94921875 2.7421875 C4.19285156 3.44601563 4.43648437 4.14984375 4.6875 4.875 C4.93886719 5.57367188 5.19023437 6.27234375 5.44921875 6.9921875 C6 9 6 9 6 12 C5.34 12 4.68 12 4 12 C3.67 11.34 3.34 10.68 3 10 C2.01 9.34 1.02 8.68 0 8 C0.99 8 1.98 8 3 8 C2.67 6.35 2.34 4.7 2 3 C1.34 3 0.68 3 0 3 C0 2.01 0 1.02 0 0 Z " fill="#E2E9F1" transform="translate(20,10)"/>
<path d="M0 0 C0.33 1.32 0.66 2.64 1 4 C-2 6 -2 6 -4.5625 5.875 C-7 5 -7 5 -8.3125 2.9375 C-8.539375 2.298125 -8.76625 1.65875 -9 1 C-8.401875 1.309375 -7.80375 1.61875 -7.1875 1.9375 C-4.91043228 3.10209704 -4.91043228 3.10209704 -2 4 C-1.67 3.01 -1.34 2.02 -1 1 C-0.67 0.67 -0.34 0.34 0 0 Z " fill="#BEC4D7" transform="translate(14,17)"/>
</svg>
